<svg xmlns="http://www.w3.org/2000/svg" viewBox="0 0 411 432" width="411" height="432" preserveAspectRatio="xMidYMid meet" style="width: 100%; height: 100%; transform: translate3d(0px, 0px, 0px);"><defs><clipPath id="__lottie_element_26"><rect width="411" height="432" x="0" y="0"></rect></clipPath></defs><g clip-path="url(#__lottie_element_26)"><g transform="matrix(1,0,0,1,28.75,255.4302978515625)" opacity="1" style="display: block;"><g opacity="1" transform="matrix(1,0,0,1,175.25,69.91300201416016)"><path fill="rgb(235,235,235)" fill-opacity="1" d=" M120.30699920654297,-69.66300201416016 C120.30699920654297,-69.66300201416016 -0.6650000214576721,-69.66300201416016 -0.6650000214576721,-69.66300201416016 C-0.6650000214576721,-69.66300201416016 -120.30699920654297,-69.66300201416016 -120.30699920654297,-69.66300201416016 C-120.30699920654297,-69.66300201416016 -175,69.66300201416016 -175,69.66300201416016 C-175,69.66300201416016 175,69.66300201416016 175,69.66300201416016 C175,69.66300201416016 120.30699920654297,-69.66300201416016 120.30699920654297,-69.66300201416016z"></path></g><g opacity="1" transform="matrix(1,0,0,1,166.2969970703125,69.91300201416016)"><path fill="rgb(112,161,255)" fill-opacity="1" d=" M93.28800201416016,-11.920999526977539 C93.28800201416016,-11.920999526977539 151.927001953125,-11.920999526977539 151.927001953125,-11.920999526977539 C151.927001953125,-11.920999526977539 145.48699951171875,-28.32699966430664 145.48699951171875,-28.32699966430664 C145.48699951171875,-28.32699966430664 83.1969985961914,-28.32699966430664 83.1969985961914,-28.32699966430664 C80.72699737548828,-28.32699966430664 78.38999938964844,-27.214000701904297 76.83100128173828,-25.298999786376953 C75.27400207519531,-23.381999969482422 74.66300201416016,-20.865999221801758 75.16699981689453,-18.450000762939453 C75.16699981689453,-18.450000762939453 82.62100219726562,17.28700065612793 82.62100219726562,17.28700065612793 C82.62100219726562,17.28700065612793 -64.71399688720703,17.28700065612793 -64.71399688720703,17.28700065612793 C-64.71399688720703,17.28700065612793 -46.58100128173828,-69.66300201416016 -46.58100128173828,-69.66300201416016 C-46.58100128173828,-69.66300201416016 -63.3380012512207,-69.66300201416016 -63.3380012512207,-69.66300201416016 C-63.3380012512207,-69.66300201416016 -81.47100067138672,17.28700065612793 -81.47100067138672,17.28700065612793 C-81.47100067138672,17.28700065612793 -145.48599243164062,17.28700065612793 -145.48599243164062,17.28700065612793 C-145.48599243164062,17.28700065612793 -151.927001953125,33.69300079345703 -151.927001953125,33.69300079345703 C-151.927001953125,33.69300079345703 -84.89199829101562,33.69300079345703 -84.89199829101562,33.69300079345703 C-84.89199829101562,33.69300079345703 -92.39399719238281,69.66300201416016 -92.39399719238281,69.66300201416016 C-92.39399719238281,69.66300201416016 -75.63600158691406,69.66300201416016 -75.63600158691406,69.66300201416016 C-75.63600158691406,69.66300201416016 -68.13500213623047,33.69300079345703 -68.13500213623047,33.69300079345703 C-68.13500213623047,33.69300079345703 86.04299926757812,33.69300079345703 86.04299926757812,33.69300079345703 C86.04299926757812,33.69300079345703 93.54399871826172,69.66300201416016 93.54399871826172,69.66300201416016 C93.54399871826172,69.66300201416016 110.3010025024414,69.66300201416016 110.3010025024414,69.66300201416016 C110.3010025024414,69.66300201416016 93.28800201416016,-11.920999526977539 93.28800201416016,-11.920999526977539z"></path></g></g><g transform="matrix(1.0925343036651611,0,0,1.0925343036651611,93.4136734008789,16.433563232421875)" opacity="1" style="display: block;"><g opacity="1" transform="matrix(1,0,0,1,101.22000122070312,153.16400146484375)"><path fill="rgb(30,144,255)" fill-opacity="1" d=" M0,-152.91400146484375 C-55.762001037597656,-152.91400146484375 -100.97000122070312,-107.71399688720703 -100.97000122070312,-51.94200134277344 C-100.97000122070312,28.464000701904297 -0.75,152.91400146484375 -0.75,152.91400146484375 C-0.75,152.91400146484375 100.97000122070312,28.464000701904297 100.97000122070312,-51.94200134277344 C100.97000122070312,-107.71399688720703 55.76300048828125,-152.91400146484375 0,-152.91400146484375z"></path></g></g><g transform="matrix(1.2017730474472046,0,0,1.2017730474472046,148.32305908203125,72.37101745605469)" opacity="1" style="display: block;"><g opacity="1" transform="matrix(1,0,0,1,46.32899856567383,46.32899856567383)"><path fill="rgb(255,255,255)" fill-opacity="1" d=" M46.07899856567383,0 C46.07899856567383,25.448999404907227 25.448999404907227,46.07899856567383 0,46.07899856567383 C-25.448999404907227,46.07899856567383 -46.07899856567383,25.448999404907227 -46.07899856567383,0 C-46.07899856567383,-25.448999404907227 -25.448999404907227,-46.07899856567383 0,-46.07899856567383 C25.448999404907227,-46.07899856567383 46.07899856567383,-25.448999404907227 46.07899856567383,0z"></path></g></g></g></svg>